<svg xmlns="http://www.w3.org/2000/svg" xmlns:xlink="http://www.w3.org/1999/xlink" viewBox="0 0 44.23 53.01"><defs><style>.cls-1{fill:none;}.cls-2{clip-path:url(#clip-path);}.cls-3{fill:url(#linear-gradient);}.cls-4{clip-path:url(#clip-path-2);}.cls-5{clip-path:url(#clip-path-3);}.cls-6{fill:url(#linear-gradient-2);}.cls-7{clip-path:url(#clip-path-4);}.cls-8{fill:url(#linear-gradient-3);}.cls-9{fill:#5a61ff;}</style><clipPath id="clip-path"><path class="cls-1" d="M18.77,29.61a1.38,1.38,0,0,1,1.83.68,1.37,1.37,0,0,1,0,1.05,1.36,1.36,0,0,0-1.87-1.73"/></clipPath><linearGradient id="linear-gradient" x1="-1027.93" y1="-168.56" x2="-1026.93" y2="-168.56" gradientTransform="translate(2032.89 360.74) scale(1.96)" gradientUnits="userSpaceOnUse"><stop offset="0" stop-color="#00f8ff"/><stop offset="0.53" stop-color="#0bd3ff"/><stop offset="1" stop-color="#16aeff"/></linearGradient><clipPath id="clip-path-2"><rect class="cls-1" x="8.97" y="9.86" width="12.63" height="12.63"/></clipPath><clipPath id="clip-path-3"><path class="cls-1" d="M20.94,13.71l-8.12,8.12a2.25,2.25,0,0,1-1.59.66,2.26,2.26,0,0,1-1.6-3.86l8.12-8.12a2.28,2.28,0,0,1,1.6-.65,2.24,2.24,0,0,1,1.59.65,2.27,2.27,0,0,1,0,3.2"/></clipPath><linearGradient id="linear-gradient-2" x1="-1431.95" y1="-389.62" x2="-1430.95" y2="-389.62" gradientTransform="translate(18094.55 4937.1) scale(12.63)" xlink:href="#linear-gradient"/><clipPath id="clip-path-4"><path class="cls-1" d="M19.16,28.62a2.28,2.28,0,0,0-1.54.78L4.5,44.68v5.59h0v1.34h0L21,32.34a2.25,2.25,0,0,0-1.69-3.73h-.19"/></clipPath><linearGradient id="linear-gradient-3" x1="-1451.35" y1="-399.98" x2="-1450.35" y2="-399.98" gradientTransform="translate(24834.31 6883.77) scale(17.11)" xlink:href="#linear-gradient"/></defs><g id="Layer_2" data-name="Layer 2"><g id="Layer_1-2" data-name="Layer 1"><g id="Layer_2-2" data-name="Layer 2"><g id="Layer_1-2-2" data-name="Layer 1-2"><g class="cls-2"><rect class="cls-3" x="18.77" y="29.39" width="2.07" height="1.95"/></g><g class="cls-4"><g class="cls-5"><rect class="cls-6" x="8.97" y="9.86" width="12.85" height="12.63"/></g></g><g class="cls-7"><rect class="cls-8" x="4.49" y="28.61" width="17.14" height="23.01"/></g><path class="cls-9" d="M44.23,34.59A19.62,19.62,0,0,1,39.57,47.5,15.26,15.26,0,0,1,28,53a2.27,2.27,0,1,1-.3-4.53H28c6.48,0,11.75-6.24,11.75-13.91,0-6-3.21-11.25-8-13.17a2.27,2.27,0,0,1-1.35-2.63,17.88,17.88,0,0,0,.48-4.25,10.78,10.78,0,0,0-3-7.14C26,5.42,24,4.52,23,4.52H4.51V25.78h0V50.27h0v1.34l-.09.11L4,52.24A2.24,2.24,0,0,1,2.25,53a2.35,2.35,0,0,1-.74-.13H1.46A2.28,2.28,0,0,1,0,50.77V0H23c2.56,0,5.69,1.66,8.17,4.32a15.1,15.1,0,0,1,4.25,10.22A23.64,23.64,0,0,1,35.13,18c5.55,3.09,9.1,9.52,9.1,16.56"/></g></g></g></g></svg>