<svg xmlns="http://www.w3.org/2000/svg" xmlns:xlink="http://www.w3.org/1999/xlink"><defs><style>.cls-1{fill:none;}.cls-2{fill:#5a61ff;}.cls-3{clip-path:url(#clip-path);}.cls-4{fill:url(#linear-gradient);}.cls-5{clip-path:url(#clip-path-2);}.cls-6{clip-path:url(#clip-path-3);}.cls-7{fill:url(#linear-gradient-2);}.cls-8{clip-path:url(#clip-path-4);}.cls-9{fill:url(#linear-gradient-3);}.cls-10{isolation:isolate;}</style><clipPath id="clip-path"><path class="cls-1" d="M15.06,23.85a1.12,1.12,0,0,1,1.48.57h0a1.09,1.09,0,0,1,0,.83,1.12,1.12,0,0,0-.66-1.44,1.28,1.28,0,0,0-.34-.07,1.13,1.13,0,0,0-.48.11"/></clipPath><linearGradient id="linear-gradient" x1="-1208.5" y1="78.75" x2="-1207.5" y2="78.75" gradientTransform="matrix(1.58, 0, 0, -1.58, 1923.75, 148.9)" gradientUnits="userSpaceOnUse"><stop offset="0" stop-color="#00f8ff"/><stop offset="0.53" stop-color="#0bd3ff"/><stop offset="1" stop-color="#16aeff"/></linearGradient><clipPath id="clip-path-2"><rect class="cls-1" x="7.16" y="7.95" width="10.18" height="10.18"/></clipPath><clipPath id="clip-path-3"><path class="cls-1" d="M16.81,11.05,10.27,17.6a1.82,1.82,0,0,1-3.11-1.29A1.79,1.79,0,0,1,7.7,15l6.54-6.55a1.85,1.85,0,0,1,2.57,0,1.83,1.83,0,0,1,0,2.58"/></clipPath><linearGradient id="linear-gradient-2" x1="-2180.73" y1="507.12" x2="-2179.73" y2="507.12" gradientTransform="matrix(10.18, 0, 0, -10.18, 22205.56, 5175.54)" xlink:href="#linear-gradient"/><clipPath id="clip-path-4"><path class="cls-1" d="M15.37,23.07a1.82,1.82,0,0,0-1.24.62L3.56,36v4.5h0v1.08h0L16.89,26.06a1.81,1.81,0,0,0-1.36-3h-.16"/></clipPath><linearGradient id="linear-gradient-3" x1="-2227.4" y1="528.05" x2="-2226.4" y2="528.05" gradientTransform="matrix(13.78, 0, 0, -13.78, 30698.67, 7308.91)" xlink:href="#linear-gradient"/></defs><g id="Layer_2" data-name="Layer 2"><g id="Layer_1-2" data-name="Layer 1"><g id="Layer_2-2" data-name="Layer 2"><g id="Layer_1-2-2" data-name="Layer 1-2"><g id="Layer_2-2-2" data-name="Layer 2-2"><g id="Layer_1-2-2-2" data-name="Layer 1-2-2"><polygon class="cls-2" points="3.56 40.51 3.56 41.59 3.55 41.6 3.55 40.52 3.56 40.51"/><g class="cls-3"><rect class="cls-4" x="15.06" y="23.69" width="1.67" height="1.57"/></g><g class="cls-5"><g class="cls-6"><rect class="cls-7" x="7.16" y="7.95" width="10.35" height="10.18"/></g></g><g class="cls-8"><rect class="cls-9" x="3.55" y="23.06" width="13.81" height="18.54"/></g><path class="cls-2" d="M35.58,27.85a15.77,15.77,0,0,1-3.76,10.4,12.26,12.26,0,0,1-9.37,4.48,1.83,1.83,0,1,1-.28-3.65h.28c5.22,0,9.46-5,9.46-11.2,0-4.81-2.58-9.07-6.43-10.62a1.82,1.82,0,0,1-1-2.11,15.28,15.28,0,0,0,.38-3.43A8.65,8.65,0,0,0,22.38,6a6.38,6.38,0,0,0-3.93-2.32H3.57v17.1h0V40.51h0v1.08l-.07.09-.35.41a1.83,1.83,0,0,1-1.38.63,2,2,0,0,1-.6-.1h0A1.81,1.81,0,0,1,0,40.91V0H18.45C20.51,0,23,1.34,25,3.49a12.17,12.17,0,0,1,3.42,8.23,20.31,20.31,0,0,1-.2,2.81C32.7,17,35.56,22.2,35.56,27.88"/><polygon class="cls-2" points="3.56 40.51 3.55 41.6 3.55 40.52 3.56 40.51"/><g class="cls-10"><path class="cls-2" d="M44.07,36.57V15.44h7.32a8.71,8.71,0,0,1,3.59.67A5.52,5.52,0,0,1,57.32,18a5,5,0,0,1,.83,2.89,5.08,5.08,0,0,1-.7,2.68,4.85,4.85,0,0,1-2,1.81,5.23,5.23,0,0,1,2.65,2A5.59,5.59,0,0,1,59,30.59a5.44,5.44,0,0,1-.92,3.15,6,6,0,0,1-2.6,2.09,9.92,9.92,0,0,1-4,.74Zm3.52-18v5.59h3.48a4.06,4.06,0,0,0,2.56-.71,2.53,2.53,0,0,0,.89-2.09,2.5,2.5,0,0,0-.91-2,3.87,3.87,0,0,0-2.54-.74Zm0,14.94h3.8a4.59,4.59,0,0,0,3-.85,3.2,3.2,0,0,0,0-4.72,4.59,4.59,0,0,0-3-.83h-3.8Z"/><path class="cls-2" d="M65.86,16.66a2,2,0,0,1-.29,1,2.1,2.1,0,0,1-.75.76,2.09,2.09,0,0,1-2.09,0A2.21,2.21,0,0,1,62,17.7a2,2,0,0,1-.28-1,2.08,2.08,0,0,1,.28-1,2.21,2.21,0,0,1,.76-.76,2.09,2.09,0,0,1,2.09,0,2.1,2.1,0,0,1,.75.76A2,2,0,0,1,65.86,16.66ZM62.08,36.57V21H65.5V36.57Z"/></g><g class="cls-10"><path class="cls-2" d="M75.62,37a5,5,0,0,1-3.69-1.36,5.28,5.28,0,0,1-1.34-3.88v-8H67.86V21h2.73V15.74H74V21h4.52v2.76H74v7.65a3.07,3.07,0,0,0,.52,1.92,1.79,1.79,0,0,0,1.53.67,4.54,4.54,0,0,0,1.16-.16,5.4,5.4,0,0,0,1.16-.46L79.17,36a5.77,5.77,0,0,1-1.6.75A6.43,6.43,0,0,1,75.62,37Z"/></g><g class="cls-10"><path class="cls-2" d="M88.81,37a8.18,8.18,0,0,1-3.17-.61,7.71,7.71,0,0,1-2.52-1.71,7.84,7.84,0,0,1-1.65-2.61,9.08,9.08,0,0,1-.58-3.32,8.76,8.76,0,0,1,.58-3.24,8.13,8.13,0,0,1,1.61-2.6,7.26,7.26,0,0,1,2.42-1.75,7.88,7.88,0,0,1,6,0,7,7,0,0,1,2.35,1.65,7.21,7.21,0,0,1,1.53,2.55A9.35,9.35,0,0,1,96,28.59v1H84.43A5.85,5.85,0,0,0,85.16,32a4.08,4.08,0,0,0,1.5,1.53,4.19,4.19,0,0,0,2.15.54,4.29,4.29,0,0,0,3.81-2.17l3,1.16a6.24,6.24,0,0,1-1.56,2.13,7.22,7.22,0,0,1-2.38,1.38A8.52,8.52,0,0,1,88.81,37Zm-.27-13.69a3.67,3.67,0,0,0-1.86.47,4.1,4.1,0,0,0-1.38,1.34,5.38,5.38,0,0,0-.78,2h7.86a5.66,5.66,0,0,0-.69-2,3.52,3.52,0,0,0-3.15-1.81Z"/></g></g></g></g></g></g></g></svg>