<svg xmlns="http://www.w3.org/2000/svg" xmlns:xlink="http://www.w3.org/1999/xlink" viewBox="0 0 97.02 44.55"><defs><style>.cls-1{fill:none;}.cls-11,.cls-12,.cls-2{fill:#5a61ff;}.cls-3{clip-path:url(#clip-path);}.cls-4{fill:url(#linear-gradient);}.cls-5{clip-path:url(#clip-path-2);}.cls-6{clip-path:url(#clip-path-3);}.cls-7{fill:url(#linear-gradient-2);}.cls-8{clip-path:url(#clip-path-4);}.cls-9{fill:url(#linear-gradient-3);}.cls-10,.cls-11,.cls-12{isolation:isolate;}.cls-11,.cls-12{font-size:29.76px;font-family:AirbnbCerealApp-Medium, Airbnb Cereal App;font-weight:500;}.cls-12{letter-spacing:-0.01em;}</style><clipPath id="clip-path"><path class="cls-1" d="M15.06,23.85a1.12,1.12,0,0,1,1.48.57,1.09,1.09,0,0,1,0,.83,1.12,1.12,0,0,0-1-1.51,1.13,1.13,0,0,0-.48.11"/></clipPath><linearGradient id="linear-gradient" x1="-874.45" y1="157.04" x2="-873.45" y2="157.04" gradientTransform="translate(1395.95 -223.64) scale(1.58)" gradientUnits="userSpaceOnUse"><stop offset="0" stop-color="#00f8ff"/><stop offset="0.53" stop-color="#0bd3ff"/><stop offset="1" stop-color="#16aeff"/></linearGradient><clipPath id="clip-path-2"><rect class="cls-1" x="7.16" y="7.95" width="10.18" height="10.18"/></clipPath><clipPath id="clip-path-3"><path class="cls-1" d="M16.81,11.05,10.27,17.6a1.82,1.82,0,0,1-3.11-1.29A1.78,1.78,0,0,1,7.7,15l6.54-6.55a1.85,1.85,0,0,1,2.57,0,1.83,1.83,0,0,1,0,2.58"/></clipPath><linearGradient id="linear-gradient-2" x1="-1360.12" y1="5.09" x2="-1359.12" y2="5.09" gradientTransform="translate(13851.76 -38.8) scale(10.18)" xlink:href="#linear-gradient"/><clipPath id="clip-path-4"><path class="cls-1" d="M15.37,23.07a1.82,1.82,0,0,0-1.24.62L3.56,36v4.5h0v1.08h0L16.89,26.06a1.81,1.81,0,0,0-1.36-3h-.16"/></clipPath><linearGradient id="linear-gradient-3" x1="-1383.44" y1="-2.57" x2="-1382.44" y2="-2.57" gradientTransform="translate(19068.87 67.77) scale(13.78)" xlink:href="#linear-gradient"/></defs><g id="Layer_2" data-name="Layer 2"><g id="Layer_1-2" data-name="Layer 1"><g id="Layer_2-2" data-name="Layer 2"><g id="Layer_1-2-2" data-name="Layer 1-2"><polygon class="cls-2" points="3.56 40.51 3.56 41.59 3.55 41.6 3.55 40.52 3.56 40.51"/><g class="cls-3"><rect class="cls-4" x="15.06" y="23.69" width="1.67" height="1.57"/></g><g class="cls-5"><g class="cls-6"><rect class="cls-7" x="7.16" y="7.95" width="10.35" height="10.18"/></g></g><g class="cls-8"><rect class="cls-9" x="3.55" y="23.06" width="13.81" height="18.54"/></g><path class="cls-2" d="M35.58,27.85a15.77,15.77,0,0,1-3.76,10.4,12.26,12.26,0,0,1-9.37,4.48,1.83,1.83,0,1,1-.27-3.65h.27c5.22,0,9.46-5,9.46-11.2,0-4.81-2.58-9.07-6.43-10.62a1.82,1.82,0,0,1-1-2.11,15.28,15.28,0,0,0,.38-3.43A8.69,8.69,0,0,0,22.38,6a6.38,6.38,0,0,0-3.93-2.32H3.57V20.78h0V40.51h0v1.08l-.07.09-.35.41a1.83,1.83,0,0,1-1.38.63,2,2,0,0,1-.6-.1h0A1.81,1.81,0,0,1,0,40.91V0H18.45C20.51,0,23,1.34,25,3.49a12.17,12.17,0,0,1,3.42,8.23,20.31,20.31,0,0,1-.2,2.81c4.48,2.49,7.34,7.67,7.34,13.35"/><polygon class="cls-2" points="3.56 40.51 3.55 41.6 3.55 40.52 3.56 40.51"/><g class="cls-10"><text class="cls-11" transform="translate(41.99 36.57)">Bi</text><text class="cls-12" transform="translate(67.35 36.57)">t</text><text class="cls-11" transform="translate(79.73 36.57)">e</text></g></g></g></g></g></svg>