<svg xmlns="http://www.w3.org/2000/svg" xmlns:xlink="http://www.w3.org/1999/xlink" viewBox="0 0 99.7 45.49"><defs><style>.cls-1{isolation:isolate;}.cls-2,.cls-7{fill:#5a61ff;}.cls-3{fill:url(#linear-gradient);}.cls-4{mix-blend-mode:multiply;}.cls-5{fill:url(#linear-gradient-2);}.cls-6{fill:url(#linear-gradient-3);}.cls-7{font-size:30px;font-family:AirbnbCerealApp-Medium, Airbnb Cereal App;font-weight:500;}.cls-8{letter-spacing:-0.01em;}.cls-9{letter-spacing:0em;}</style><linearGradient id="linear-gradient" x1="15.12" y1="24.5" x2="16.7" y2="24.5" gradientUnits="userSpaceOnUse"><stop offset="0" stop-color="#00f8ff"/><stop offset="0.53" stop-color="#0bd3ff"/><stop offset="1" stop-color="#16aeff"/></linearGradient><linearGradient id="linear-gradient-2" x1="7.23" y1="13.03" x2="17.41" y2="13.03" xlink:href="#linear-gradient"/><linearGradient id="linear-gradient-3" x1="3.62" y1="32.32" x2="17.4" y2="32.32" xlink:href="#linear-gradient"/></defs><g class="cls-1"><g id="Layer_2" data-name="Layer 2"><g id="Layer_1-2" data-name="Layer 1"><polygon class="cls-2" points="3.63 40.51 3.63 41.59 3.62 41.59 3.62 40.52 3.63 40.51"/><path class="cls-3" d="M16.63,25.25a1.11,1.11,0,0,0-1.51-1.39,1.08,1.08,0,0,1,1.2.16A1.11,1.11,0,0,1,16.63,25.25Z"/><g class="cls-4"><path class="cls-5" d="M16.87,11.05l-6.54,6.54a1.81,1.81,0,0,1-1.28.53,1.83,1.83,0,0,1-1.29-.53,1.83,1.83,0,0,1,0-2.58L14.3,8.47A1.82,1.82,0,0,1,15.59,8a1.78,1.78,0,0,1,1.28.52A1.83,1.83,0,0,1,16.87,11.05Z"/></g><path class="cls-6" d="M17.4,24.74A1.78,1.78,0,0,1,17,26.06L3.63,41.59h0V40.51h0V36L14.2,23.69a1.85,1.85,0,0,1,1.24-.63,1.81,1.81,0,0,1,2,1.68Z"/><path class="cls-2" d="M35.64,27.87a15.75,15.75,0,0,1-3.76,10.4,12.27,12.27,0,0,1-9.35,4.46,1.83,1.83,0,1,1,0-3.65c5.22,0,9.47-5,9.47-11.21,0-4.8-2.59-9.06-6.43-10.61a1.82,1.82,0,0,1-1.09-2.12,14.51,14.51,0,0,0,.39-3.42A8.71,8.71,0,0,0,22.42,6,6.49,6.49,0,0,0,18.5,3.64H3.63V20.77h0V40.51h0v1.08l-.07.09-.36.41a1.79,1.79,0,0,1-1.38.64,2.18,2.18,0,0,1-.59-.1h0A1.83,1.83,0,0,1,0,40.91V0H18.5c2.06,0,4.59,1.34,6.58,3.48a12.19,12.19,0,0,1,3.43,8.24,19.67,19.67,0,0,1-.2,2.81C32.78,17,35.64,22.2,35.64,27.87Z"/><polygon class="cls-2" points="3.63 40.51 3.62 41.59 3.62 40.52 3.63 40.51"/><text class="cls-7" transform="translate(44.23 37.45)">Bi<tspan class="cls-8" x="25.56" y="0">t</tspan><tspan class="cls-9" x="38.04" y="0">e</tspan></text></g></g></g></svg>